%TF.GenerationSoftware,KiCad,Pcbnew,9.0.7*%
%TF.CreationDate,2026-08-03T14:04:41-04:00*%
%TF.ProjectId,sentry-keyboard-v1,73656e74-7279-42d6-9b65-79626f617264,rev?*%
%TF.SameCoordinates,Original*%
%TF.FileFunction,Legend,Top*%
%TF.FilePolarity,Positive*%
%FSLAX46Y46*%
G04 Gerber Fmt 4.6, Leading zero omitted, Abs format (unit mm)*
G04 Created by KiCad (PCBNEW 9.0.7) date 2026-08-03 14:04:41*
%MOMM*%
%LPD*%
G01*
G04 APERTURE LIST*
%ADD10C,0.150000*%
%ADD11C,0.250000*%
%ADD12C,0.120000*%
G04 APERTURE END LIST*
D10*
X149454819Y-193027619D02*
X148978628Y-193360952D01*
X149454819Y-193599047D02*
X148454819Y-193599047D01*
X148454819Y-193599047D02*
X148454819Y-193218095D01*
X148454819Y-193218095D02*
X148502438Y-193122857D01*
X148502438Y-193122857D02*
X148550057Y-193075238D01*
X148550057Y-193075238D02*
X148645295Y-193027619D01*
X148645295Y-193027619D02*
X148788152Y-193027619D01*
X148788152Y-193027619D02*
X148883390Y-193075238D01*
X148883390Y-193075238D02*
X148931009Y-193122857D01*
X148931009Y-193122857D02*
X148978628Y-193218095D01*
X148978628Y-193218095D02*
X148978628Y-193599047D01*
X149407200Y-192646666D02*
X149454819Y-192503809D01*
X149454819Y-192503809D02*
X149454819Y-192265714D01*
X149454819Y-192265714D02*
X149407200Y-192170476D01*
X149407200Y-192170476D02*
X149359580Y-192122857D01*
X149359580Y-192122857D02*
X149264342Y-192075238D01*
X149264342Y-192075238D02*
X149169104Y-192075238D01*
X149169104Y-192075238D02*
X149073866Y-192122857D01*
X149073866Y-192122857D02*
X149026247Y-192170476D01*
X149026247Y-192170476D02*
X148978628Y-192265714D01*
X148978628Y-192265714D02*
X148931009Y-192456190D01*
X148931009Y-192456190D02*
X148883390Y-192551428D01*
X148883390Y-192551428D02*
X148835771Y-192599047D01*
X148835771Y-192599047D02*
X148740533Y-192646666D01*
X148740533Y-192646666D02*
X148645295Y-192646666D01*
X148645295Y-192646666D02*
X148550057Y-192599047D01*
X148550057Y-192599047D02*
X148502438Y-192551428D01*
X148502438Y-192551428D02*
X148454819Y-192456190D01*
X148454819Y-192456190D02*
X148454819Y-192218095D01*
X148454819Y-192218095D02*
X148502438Y-192075238D01*
X148454819Y-191789523D02*
X148454819Y-191218095D01*
X149454819Y-191503809D02*
X148454819Y-191503809D01*
X146907200Y-193515713D02*
X146954819Y-193372856D01*
X146954819Y-193372856D02*
X146954819Y-193134761D01*
X146954819Y-193134761D02*
X146907200Y-193039523D01*
X146907200Y-193039523D02*
X146859580Y-192991904D01*
X146859580Y-192991904D02*
X146764342Y-192944285D01*
X146764342Y-192944285D02*
X146669104Y-192944285D01*
X146669104Y-192944285D02*
X146573866Y-192991904D01*
X146573866Y-192991904D02*
X146526247Y-193039523D01*
X146526247Y-193039523D02*
X146478628Y-193134761D01*
X146478628Y-193134761D02*
X146431009Y-193325237D01*
X146431009Y-193325237D02*
X146383390Y-193420475D01*
X146383390Y-193420475D02*
X146335771Y-193468094D01*
X146335771Y-193468094D02*
X146240533Y-193515713D01*
X146240533Y-193515713D02*
X146145295Y-193515713D01*
X146145295Y-193515713D02*
X146050057Y-193468094D01*
X146050057Y-193468094D02*
X146002438Y-193420475D01*
X146002438Y-193420475D02*
X145954819Y-193325237D01*
X145954819Y-193325237D02*
X145954819Y-193087142D01*
X145954819Y-193087142D02*
X146002438Y-192944285D01*
X146859580Y-191944285D02*
X146907200Y-191991904D01*
X146907200Y-191991904D02*
X146954819Y-192134761D01*
X146954819Y-192134761D02*
X146954819Y-192229999D01*
X146954819Y-192229999D02*
X146907200Y-192372856D01*
X146907200Y-192372856D02*
X146811961Y-192468094D01*
X146811961Y-192468094D02*
X146716723Y-192515713D01*
X146716723Y-192515713D02*
X146526247Y-192563332D01*
X146526247Y-192563332D02*
X146383390Y-192563332D01*
X146383390Y-192563332D02*
X146192914Y-192515713D01*
X146192914Y-192515713D02*
X146097676Y-192468094D01*
X146097676Y-192468094D02*
X146002438Y-192372856D01*
X146002438Y-192372856D02*
X145954819Y-192229999D01*
X145954819Y-192229999D02*
X145954819Y-192134761D01*
X145954819Y-192134761D02*
X146002438Y-191991904D01*
X146002438Y-191991904D02*
X146050057Y-191944285D01*
X146954819Y-191515713D02*
X145954819Y-191515713D01*
X146954819Y-190944285D02*
X146383390Y-191372856D01*
X145954819Y-190944285D02*
X146526247Y-191515713D01*
X144454819Y-194051427D02*
X143454819Y-194051427D01*
X143454819Y-194051427D02*
X144169104Y-193718094D01*
X144169104Y-193718094D02*
X143454819Y-193384761D01*
X143454819Y-193384761D02*
X144454819Y-193384761D01*
X144454819Y-192908570D02*
X143454819Y-192908570D01*
X144407200Y-192479999D02*
X144454819Y-192337142D01*
X144454819Y-192337142D02*
X144454819Y-192099047D01*
X144454819Y-192099047D02*
X144407200Y-192003809D01*
X144407200Y-192003809D02*
X144359580Y-191956190D01*
X144359580Y-191956190D02*
X144264342Y-191908571D01*
X144264342Y-191908571D02*
X144169104Y-191908571D01*
X144169104Y-191908571D02*
X144073866Y-191956190D01*
X144073866Y-191956190D02*
X144026247Y-192003809D01*
X144026247Y-192003809D02*
X143978628Y-192099047D01*
X143978628Y-192099047D02*
X143931009Y-192289523D01*
X143931009Y-192289523D02*
X143883390Y-192384761D01*
X143883390Y-192384761D02*
X143835771Y-192432380D01*
X143835771Y-192432380D02*
X143740533Y-192479999D01*
X143740533Y-192479999D02*
X143645295Y-192479999D01*
X143645295Y-192479999D02*
X143550057Y-192432380D01*
X143550057Y-192432380D02*
X143502438Y-192384761D01*
X143502438Y-192384761D02*
X143454819Y-192289523D01*
X143454819Y-192289523D02*
X143454819Y-192051428D01*
X143454819Y-192051428D02*
X143502438Y-191908571D01*
X143454819Y-191289523D02*
X143454819Y-191099047D01*
X143454819Y-191099047D02*
X143502438Y-191003809D01*
X143502438Y-191003809D02*
X143597676Y-190908571D01*
X143597676Y-190908571D02*
X143788152Y-190860952D01*
X143788152Y-190860952D02*
X144121485Y-190860952D01*
X144121485Y-190860952D02*
X144311961Y-190908571D01*
X144311961Y-190908571D02*
X144407200Y-191003809D01*
X144407200Y-191003809D02*
X144454819Y-191099047D01*
X144454819Y-191099047D02*
X144454819Y-191289523D01*
X144454819Y-191289523D02*
X144407200Y-191384761D01*
X144407200Y-191384761D02*
X144311961Y-191479999D01*
X144311961Y-191479999D02*
X144121485Y-191527618D01*
X144121485Y-191527618D02*
X143788152Y-191527618D01*
X143788152Y-191527618D02*
X143597676Y-191479999D01*
X143597676Y-191479999D02*
X143502438Y-191384761D01*
X143502438Y-191384761D02*
X143454819Y-191289523D01*
X148502438Y-184741904D02*
X148454819Y-184837142D01*
X148454819Y-184837142D02*
X148454819Y-184979999D01*
X148454819Y-184979999D02*
X148502438Y-185122856D01*
X148502438Y-185122856D02*
X148597676Y-185218094D01*
X148597676Y-185218094D02*
X148692914Y-185265713D01*
X148692914Y-185265713D02*
X148883390Y-185313332D01*
X148883390Y-185313332D02*
X149026247Y-185313332D01*
X149026247Y-185313332D02*
X149216723Y-185265713D01*
X149216723Y-185265713D02*
X149311961Y-185218094D01*
X149311961Y-185218094D02*
X149407200Y-185122856D01*
X149407200Y-185122856D02*
X149454819Y-184979999D01*
X149454819Y-184979999D02*
X149454819Y-184884761D01*
X149454819Y-184884761D02*
X149407200Y-184741904D01*
X149407200Y-184741904D02*
X149359580Y-184694285D01*
X149359580Y-184694285D02*
X149026247Y-184694285D01*
X149026247Y-184694285D02*
X149026247Y-184884761D01*
X149454819Y-184265713D02*
X148454819Y-184265713D01*
X148454819Y-184265713D02*
X149454819Y-183694285D01*
X149454819Y-183694285D02*
X148454819Y-183694285D01*
X149454819Y-183218094D02*
X148454819Y-183218094D01*
X148454819Y-183218094D02*
X148454819Y-182979999D01*
X148454819Y-182979999D02*
X148502438Y-182837142D01*
X148502438Y-182837142D02*
X148597676Y-182741904D01*
X148597676Y-182741904D02*
X148692914Y-182694285D01*
X148692914Y-182694285D02*
X148883390Y-182646666D01*
X148883390Y-182646666D02*
X149026247Y-182646666D01*
X149026247Y-182646666D02*
X149216723Y-182694285D01*
X149216723Y-182694285D02*
X149311961Y-182741904D01*
X149311961Y-182741904D02*
X149407200Y-182837142D01*
X149407200Y-182837142D02*
X149454819Y-182979999D01*
X149454819Y-182979999D02*
X149454819Y-183218094D01*
X146954819Y-185551427D02*
X145954819Y-185551427D01*
X145954819Y-185551427D02*
X146669104Y-185218094D01*
X146669104Y-185218094D02*
X145954819Y-184884761D01*
X145954819Y-184884761D02*
X146954819Y-184884761D01*
X145954819Y-184218094D02*
X145954819Y-184027618D01*
X145954819Y-184027618D02*
X146002438Y-183932380D01*
X146002438Y-183932380D02*
X146097676Y-183837142D01*
X146097676Y-183837142D02*
X146288152Y-183789523D01*
X146288152Y-183789523D02*
X146621485Y-183789523D01*
X146621485Y-183789523D02*
X146811961Y-183837142D01*
X146811961Y-183837142D02*
X146907200Y-183932380D01*
X146907200Y-183932380D02*
X146954819Y-184027618D01*
X146954819Y-184027618D02*
X146954819Y-184218094D01*
X146954819Y-184218094D02*
X146907200Y-184313332D01*
X146907200Y-184313332D02*
X146811961Y-184408570D01*
X146811961Y-184408570D02*
X146621485Y-184456189D01*
X146621485Y-184456189D02*
X146288152Y-184456189D01*
X146288152Y-184456189D02*
X146097676Y-184408570D01*
X146097676Y-184408570D02*
X146002438Y-184313332D01*
X146002438Y-184313332D02*
X145954819Y-184218094D01*
X146907200Y-183408570D02*
X146954819Y-183265713D01*
X146954819Y-183265713D02*
X146954819Y-183027618D01*
X146954819Y-183027618D02*
X146907200Y-182932380D01*
X146907200Y-182932380D02*
X146859580Y-182884761D01*
X146859580Y-182884761D02*
X146764342Y-182837142D01*
X146764342Y-182837142D02*
X146669104Y-182837142D01*
X146669104Y-182837142D02*
X146573866Y-182884761D01*
X146573866Y-182884761D02*
X146526247Y-182932380D01*
X146526247Y-182932380D02*
X146478628Y-183027618D01*
X146478628Y-183027618D02*
X146431009Y-183218094D01*
X146431009Y-183218094D02*
X146383390Y-183313332D01*
X146383390Y-183313332D02*
X146335771Y-183360951D01*
X146335771Y-183360951D02*
X146240533Y-183408570D01*
X146240533Y-183408570D02*
X146145295Y-183408570D01*
X146145295Y-183408570D02*
X146050057Y-183360951D01*
X146050057Y-183360951D02*
X146002438Y-183313332D01*
X146002438Y-183313332D02*
X145954819Y-183218094D01*
X145954819Y-183218094D02*
X145954819Y-182979999D01*
X145954819Y-182979999D02*
X146002438Y-182837142D01*
X146954819Y-182408570D02*
X145954819Y-182408570D01*
X143454819Y-185563332D02*
X144454819Y-185229999D01*
X144454819Y-185229999D02*
X143454819Y-184896666D01*
X144359580Y-183991904D02*
X144407200Y-184039523D01*
X144407200Y-184039523D02*
X144454819Y-184182380D01*
X144454819Y-184182380D02*
X144454819Y-184277618D01*
X144454819Y-184277618D02*
X144407200Y-184420475D01*
X144407200Y-184420475D02*
X144311961Y-184515713D01*
X144311961Y-184515713D02*
X144216723Y-184563332D01*
X144216723Y-184563332D02*
X144026247Y-184610951D01*
X144026247Y-184610951D02*
X143883390Y-184610951D01*
X143883390Y-184610951D02*
X143692914Y-184563332D01*
X143692914Y-184563332D02*
X143597676Y-184515713D01*
X143597676Y-184515713D02*
X143502438Y-184420475D01*
X143502438Y-184420475D02*
X143454819Y-184277618D01*
X143454819Y-184277618D02*
X143454819Y-184182380D01*
X143454819Y-184182380D02*
X143502438Y-184039523D01*
X143502438Y-184039523D02*
X143550057Y-183991904D01*
X144359580Y-182991904D02*
X144407200Y-183039523D01*
X144407200Y-183039523D02*
X144454819Y-183182380D01*
X144454819Y-183182380D02*
X144454819Y-183277618D01*
X144454819Y-183277618D02*
X144407200Y-183420475D01*
X144407200Y-183420475D02*
X144311961Y-183515713D01*
X144311961Y-183515713D02*
X144216723Y-183563332D01*
X144216723Y-183563332D02*
X144026247Y-183610951D01*
X144026247Y-183610951D02*
X143883390Y-183610951D01*
X143883390Y-183610951D02*
X143692914Y-183563332D01*
X143692914Y-183563332D02*
X143597676Y-183515713D01*
X143597676Y-183515713D02*
X143502438Y-183420475D01*
X143502438Y-183420475D02*
X143454819Y-183277618D01*
X143454819Y-183277618D02*
X143454819Y-183182380D01*
X143454819Y-183182380D02*
X143502438Y-183039523D01*
X143502438Y-183039523D02*
X143550057Y-182991904D01*
D11*
%TO.C,J4*%
X147750000Y-185730000D02*
X150250000Y-185730000D01*
X147750000Y-190730000D02*
X147750000Y-185730000D01*
X150250000Y-185730000D02*
X150250000Y-190730000D01*
X150250000Y-190730000D02*
X147750000Y-190730000D01*
D12*
%TO.C,SW2*%
X348150000Y-83500000D02*
X352250000Y-83500000D01*
X348150000Y-85900000D02*
X348150000Y-83500000D01*
X348150000Y-90700000D02*
X348150000Y-88100000D01*
X348150000Y-95300000D02*
X348150000Y-92900000D01*
X352250000Y-95300000D02*
X348150000Y-95300000D01*
X354250000Y-89900000D02*
X354250000Y-88900000D01*
X354750000Y-89400000D02*
X353750000Y-89400000D01*
X356250000Y-83500000D02*
X360350000Y-83500000D01*
X356250000Y-95300000D02*
X360350000Y-95300000D01*
X360350000Y-95300000D02*
X360350000Y-83500000D01*
X361450000Y-93500000D02*
X361750000Y-93200000D01*
X361750000Y-93200000D02*
X362050000Y-93500000D01*
X362050000Y-93500000D02*
X361450000Y-93500000D01*
X357250000Y-89400000D02*
G75*
G02*
X351250000Y-89400000I-3000000J0D01*
G01*
X351250000Y-89400000D02*
G75*
G02*
X357250000Y-89400000I3000000J0D01*
G01*
%TD*%
M02*
