M48
; DRILL file {KiCad 9.0.7} date 2026-08-04T23:07:27-0400
; FORMAT={-:-/ absolute / metric / decimal}
; #@! TF.CreationDate,2026-08-04T23:07:27-04:00
; #@! TF.GenerationSoftware,Kicad,Pcbnew,9.0.7
; #@! TF.FileFunction,Plated,1,2,PTH
FMAT,2
METRIC
; #@! TA.AperFunction,Plated,PTH,ViaDrill
T1C0.300
; #@! TA.AperFunction,Plated,PTH,ComponentDrill
T2C1.000
%
G90
G05
T1
X54.0Y-119.0
X54.5Y-186.0
X55.0Y-107.5
X55.145Y-90.75
X57.0Y-130.0
X59.0Y-149.0
X59.0Y-167.5
X66.5Y-178.5
X73.5Y-114.0
X75.54Y-87.71
X76.0Y-117.25
X79.0Y-94.25
X79.0Y-193.5
X81.0Y-184.5
X82.5Y-132.5
X84.5Y-155.5
X85.0Y-136.5
X88.0Y-152.5
X92.5Y-113.5
X94.5Y-117.25
X95.0Y-179.5
X97.0Y-171.0
X97.5Y-90.25
X99.5Y-94.25
X99.5Y-174.0
X102.5Y-133.5
X103.5Y-193.5
X104.5Y-136.5
X104.5Y-189.5
X105.75Y-155.75
X107.0Y-151.5
X111.4Y-115.75
X112.0Y-114.5
X114.0Y-117.25
X116.495Y-90.745
X116.5Y-171.0
X118.0Y-174.5
X118.5Y-94.25
X120.25Y-155.5
X120.4Y-135.0
X121.0Y-133.5
X123.5Y-136.5
X124.398Y-154.0
X126.0Y-152.0
X129.75Y-194.25
X131.0Y-114.0
X132.5Y-191.5
X133.25Y-117.5
X135.0Y-121.501
X135.5Y-90.25
X135.5Y-171.0
X137.25Y-190.25
X137.5Y-94.25
X137.5Y-97.25
X137.5Y-174.0
X138.0Y-177.25
X139.7Y-190.3
X139.7Y-193.856
X140.5Y-133.5
X140.5Y-193.856
X141.75Y-185.75
X142.5Y-136.5
X144.25Y-155.75
X145.25Y-185.0
X145.5Y-120.5
X145.5Y-152.5
X148.0Y-174.5
X150.0Y-114.0
X151.625Y-139.125
X152.5Y-117.25
X154.5Y-171.5
X156.5Y-174.5
X156.5Y-188.0
X157.0Y-94.25
X157.0Y-158.5
X159.5Y-90.75
X159.5Y-134.0
X161.5Y-136.5
X161.5Y-141.0
X163.0Y-155.75
X164.5Y-153.0
X164.5Y-177.25
X167.375Y-190.125
X169.0Y-115.0
X170.456Y-193.044
X171.25Y-117.0
X173.5Y-121.501
X173.5Y-172.0
X174.1Y-173.0
X175.25Y-182.75
X176.0Y-174.5
X176.5Y-195.0
X176.5Y-201.0
X177.75Y-93.5
X178.0Y-193.0
X178.5Y-91.75
X178.5Y-134.0
X180.5Y-94.25
X180.5Y-136.75
X181.0Y-197.0
X183.5Y-152.5
X185.0Y-155.5
X188.0Y-114.5
X188.5Y-200.5
X189.25Y-117.5
X190.5Y-123.0
X191.5Y-188.0
X192.45Y-200.0
X192.5Y-164.5
X192.5Y-195.0
X193.0Y-171.5
X193.1Y-194.4
X193.25Y-200.0
X193.493Y-182.909
X193.5Y-180.5
X194.5Y-174.5
X195.0Y-196.0
X195.926Y-186.362
X196.554Y-182.902
X197.5Y-135.0
X197.56Y-91.25
X199.5Y-94.25
X199.5Y-192.0
X199.5Y-193.5
X200.0Y-136.5
X201.0Y-155.5
X201.0Y-195.5
X201.0Y-199.727
X202.5Y-152.5
X203.0Y-196.5
X203.0Y-197.5
X204.0Y-155.5
X206.5Y-194.0
X206.6Y-182.6
X207.0Y-160.0
X207.5Y-114.5
X209.0Y-200.0
X209.25Y-117.5
X211.0Y-171.5
X212.5Y-189.5
X212.5Y-194.0
X214.0Y-174.5
X214.0Y-186.5
X214.5Y-155.5
X214.5Y-179.5
X215.4Y-140.6
X216.0Y-141.6
X216.0Y-197.5
X216.5Y-124.25
X216.5Y-133.0
X216.64Y-91.61
X217.0Y-180.5
X217.0Y-197.0
X217.097Y-184.432
X217.505Y-141.5
X218.0Y-94.25
X218.0Y-192.5
X218.0Y-193.5
X218.0Y-194.5
X218.5Y-136.5
X219.0Y-191.0
X219.0Y-192.0
X219.75Y-117.75
X221.5Y-152.0
X222.25Y-172.0
X223.0Y-155.5
X223.0Y-181.5
X223.25Y-143.25
X223.75Y-177.4
X226.0Y-114.0
X227.75Y-182.999
X228.5Y-117.25
X228.5Y-185.0
X229.0Y-197.0
X229.5Y-181.25
X231.0Y-171.5
X231.0Y-189.0
X232.5Y-174.5
X235.5Y-133.5
X235.972Y-183.972
X237.5Y-136.5
X238.25Y-141.803
X238.25Y-181.25
X239.0Y-184.0
X239.0Y-194.0
X239.0Y-200.0
X239.011Y-178.6
X240.0Y-178.6
X240.5Y-90.75
X240.5Y-152.5
X241.0Y-94.25
X242.0Y-159.553
X242.5Y-155.5
X242.642Y-160.1
X244.5Y-117.5
X245.5Y-114.5
X245.5Y-185.0
X248.0Y-194.5
X250.0Y-171.0
X252.0Y-174.5
X252.5Y-200.0
X254.5Y-133.5
X256.5Y-136.5
X259.5Y-91.25
X259.5Y-152.5
X260.0Y-156.0
X260.5Y-94.25
X264.5Y-114.0
X264.5Y-121.553
X264.5Y-184.0
X264.826Y-122.284
X265.75Y-160.356
X266.0Y-193.5
X266.25Y-117.25
X267.5Y-171.5
X267.75Y-136.5
X270.0Y-174.5
X270.0Y-179.0
X271.0Y-183.5
X271.517Y-142.204
X274.1Y-133.75
X276.995Y-142.204
X278.571Y-91.179
X279.25Y-152.5
X279.5Y-94.25
X281.5Y-155.0
X282.501Y-182.501
X283.5Y-115.0
X284.0Y-193.0
X285.5Y-117.25
X287.25Y-170.5
X288.0Y-122.0
X288.0Y-123.0
X293.0Y-174.5
X293.1Y-133.75
X295.25Y-136.0
X297.202Y-141.402
X297.571Y-91.321
X297.894Y-141.001
X299.0Y-94.25
X301.0Y-142.75
X301.25Y-158.5
X304.5Y-155.5
X306.435Y-187.0
X306.6Y-197.0
X307.0Y-117.5
X308.75Y-158.5
X309.5Y-152.5
X310.0Y-142.75
X312.0Y-105.5
X314.0Y-136.5
X316.5Y-127.0
X316.5Y-140.6
X318.5Y-178.0
X318.5Y-182.5
X321.255Y-91.505
X321.75Y-142.75
X322.0Y-94.25
X324.5Y-169.0
X325.435Y-187.665
X325.6Y-197.0
X326.0Y-121.5
X330.75Y-153.25
X338.0Y-97.0
X338.6Y-121.489
X338.6Y-122.5
X339.649Y-161.351
X340.03Y-162.055
X341.5Y-158.25
X342.0Y-133.0
X342.5Y-125.5
X344.25Y-125.5
X344.6Y-187.5
X344.85Y-197.75
X344.95Y-113.95
X344.989Y-181.989
X345.4Y-140.722
X345.588Y-182.52
X346.387Y-182.482
X346.727Y-183.227
X347.0Y-122.25
X347.037Y-180.401
X348.0Y-164.653
X348.5Y-123.0
X350.0Y-175.0
X350.5Y-117.0
X351.0Y-120.0
X351.1Y-185.0
X354.0Y-179.5
X354.125Y-89.775
X356.6Y-197.0
X357.6Y-198.5
X364.75Y-89.15
X373.5Y-197.0
T2
X143.96Y-186.96
X143.96Y-189.5
X146.5Y-186.96
X146.5Y-189.5
X149.04Y-186.96
X149.04Y-189.5
X347.25Y-86.9
X347.25Y-91.9
X361.75Y-86.9
X361.75Y-89.4
X361.75Y-91.9
M30
