M48
; DRILL file {KiCad 9.0.7} date 2026-08-04T23:07:27-0400
; FORMAT={-:-/ absolute / metric / decimal}
; #@! TF.CreationDate,2026-08-04T23:07:27-04:00
; #@! TF.GenerationSoftware,Kicad,Pcbnew,9.0.7
; #@! TF.FileFunction,NonPlated,1,2,NPTH
FMAT,2
METRIC
; #@! TA.AperFunction,NonPlated,NPTH,ComponentDrill
T1C1.500
; #@! TA.AperFunction,NonPlated,NPTH,ComponentDrill
T2C1.702
; #@! TA.AperFunction,NonPlated,NPTH,ComponentDrill
T3C3.000
; #@! TA.AperFunction,NonPlated,NPTH,ComponentDrill
T4C3.048
; #@! TA.AperFunction,NonPlated,NPTH,ComponentDrill
T5C3.988
%
G90
G05
T2
X56.627Y-113.273
X57.15Y-89.5
X59.074Y-189.497
X61.436Y-132.325
X63.807Y-151.372
X66.787Y-113.273
X67.31Y-89.5
X68.575Y-170.425
X69.234Y-189.497
X71.596Y-132.325
X73.967Y-151.372
X75.733Y-113.3
X78.735Y-170.425
X80.42Y-89.5
X82.889Y-189.497
X85.258Y-132.313
X85.893Y-113.3
X90.006Y-151.37
X90.58Y-89.5
X93.049Y-189.497
X94.778Y-113.3
X95.418Y-132.313
X99.5Y-170.43
X99.5Y-89.5
X100.166Y-151.37
X104.313Y-132.321
X104.938Y-113.3
X106.696Y-189.485
X109.088Y-151.37
X109.66Y-170.43
X109.66Y-89.5
X113.82Y-113.31
X114.473Y-132.321
X116.856Y-189.485
X118.5Y-89.5
X118.533Y-170.428
X119.248Y-151.37
X123.368Y-132.321
X123.98Y-113.31
X128.121Y-151.362
X128.66Y-89.5
X128.693Y-170.428
X132.876Y-113.251
X133.528Y-132.321
X137.5Y-89.5
X137.602Y-170.428
X138.281Y-151.362
X142.418Y-132.313
X143.036Y-113.251
X147.168Y-151.344
X147.66Y-89.5
X147.762Y-170.428
X151.953Y-113.261
X152.578Y-132.313
X156.691Y-170.428
X157.328Y-151.344
X161.42Y-89.5
X161.447Y-132.313
X162.113Y-113.261
X166.246Y-151.393
X166.851Y-170.428
X170.982Y-113.261
X171.58Y-89.5
X171.607Y-132.313
X175.741Y-170.453
X176.406Y-151.393
X178.146Y-189.456
X180.476Y-132.313
X180.513Y-89.517
X181.142Y-113.261
X185.334Y-151.376
X185.901Y-170.453
X188.306Y-189.456
X190.093Y-113.24
X190.636Y-132.313
X190.673Y-89.517
X194.788Y-170.453
X195.494Y-151.376
X199.505Y-132.313
X199.565Y-89.519
X200.253Y-113.24
X204.34Y-151.362
X204.948Y-170.453
X209.145Y-113.259
X209.665Y-132.313
X209.725Y-89.519
X213.884Y-170.439
X214.5Y-151.362
X218.566Y-132.345
X218.645Y-89.519
X219.305Y-113.259
X223.304Y-151.422
X224.044Y-170.439
X228.191Y-113.259
X228.726Y-132.345
X228.805Y-89.519
X232.933Y-170.439
X233.464Y-151.422
X237.632Y-132.336
X238.351Y-113.259
X242.384Y-151.422
X242.5Y-89.5
X243.093Y-170.439
X247.213Y-189.482
X247.268Y-113.259
X247.792Y-132.336
X252.005Y-170.435
X252.544Y-151.422
X252.66Y-89.5
X256.661Y-132.336
X257.373Y-189.482
X257.428Y-113.259
X261.446Y-151.426
X261.5Y-89.5
X262.165Y-170.435
X266.267Y-189.491
X266.327Y-113.249
X266.821Y-132.336
X271.082Y-170.41
X271.606Y-151.426
X271.66Y-89.5
X275.69Y-132.336
X276.427Y-189.491
X276.487Y-113.249
X280.527Y-151.37
X280.576Y-89.503
X281.242Y-170.41
X285.34Y-189.5
X285.407Y-113.249
X285.85Y-132.336
X290.687Y-151.37
X290.736Y-89.503
X294.751Y-132.336
X295.5Y-189.5
X295.567Y-113.249
X297.289Y-170.416
X299.576Y-89.503
X304.911Y-132.336
X307.449Y-170.416
X308.19Y-193.5
X309.736Y-89.503
X311.49Y-151.376
X314.008Y-113.252
X318.35Y-193.5
X318.578Y-132.304
X321.65Y-151.376
X323.26Y-89.5
X324.168Y-113.252
X327.19Y-193.5
X327.19Y-174.5
X328.738Y-132.304
X333.42Y-89.5
X337.35Y-193.5
X337.35Y-174.5
X346.19Y-193.5
X350.17Y-170.725
X350.193Y-151.665
X350.194Y-113.54
X350.196Y-132.593
X356.35Y-193.5
X360.33Y-170.725
X360.353Y-151.665
X360.354Y-113.54
X360.356Y-132.593
T3
X57.897Y-110.733
X58.42Y-86.96
X60.344Y-186.957
X62.706Y-129.785
X64.247Y-108.193
X64.77Y-84.42
X65.077Y-148.832
X66.694Y-184.417
X69.056Y-127.245
X69.845Y-167.885
X71.427Y-146.292
X76.195Y-165.345
X77.003Y-110.76
X81.69Y-86.96
X83.353Y-108.22
X84.159Y-186.957
X86.528Y-129.773
X88.04Y-84.42
X90.509Y-184.417
X91.276Y-148.83
X92.878Y-127.233
X96.048Y-110.76
X97.626Y-146.29
X100.77Y-167.89
X100.77Y-86.96
X102.398Y-108.22
X105.583Y-129.781
X107.12Y-165.35
X107.12Y-84.42
X107.966Y-186.945
X110.358Y-148.83
X111.933Y-127.241
X114.316Y-184.405
X115.09Y-110.77
X116.708Y-146.29
X119.77Y-86.96
X119.803Y-167.888
X121.44Y-108.23
X124.638Y-129.781
X126.12Y-84.42
X126.153Y-165.348
X129.391Y-148.822
X130.988Y-127.241
X134.146Y-110.711
X135.741Y-146.282
X138.77Y-86.96
X138.872Y-167.888
X140.496Y-108.171
X143.688Y-129.773
X145.12Y-84.42
X145.222Y-165.348
X148.438Y-148.804
X150.038Y-127.233
X153.223Y-110.721
X154.788Y-146.264
X157.961Y-167.888
X159.573Y-108.181
X162.69Y-86.96
X162.717Y-129.773
X164.311Y-165.348
X167.516Y-148.853
X169.04Y-84.42
X169.067Y-127.233
X172.252Y-110.721
X173.866Y-146.313
X177.011Y-167.913
X178.602Y-108.181
X179.416Y-186.916
X181.746Y-129.773
X181.783Y-86.977
X183.361Y-165.373
X185.766Y-184.376
X186.604Y-148.836
X188.096Y-127.233
X188.133Y-84.437
X191.363Y-110.7
X192.954Y-146.296
X196.058Y-167.913
X197.713Y-108.16
X200.775Y-129.773
X200.835Y-86.979
X202.408Y-165.373
X205.61Y-148.822
X207.125Y-127.233
X207.185Y-84.439
X210.415Y-110.719
X211.96Y-146.282
X215.154Y-167.899
X216.765Y-108.179
X219.836Y-129.805
X219.915Y-86.979
X221.504Y-165.359
X224.574Y-148.882
X226.186Y-127.265
X226.265Y-84.439
X229.461Y-110.719
X230.924Y-146.342
X234.203Y-167.899
X235.811Y-108.179
X238.902Y-129.796
X240.553Y-165.359
X243.654Y-148.882
X243.77Y-86.96
X245.252Y-127.256
X248.483Y-186.942
X248.538Y-110.719
X250.004Y-146.342
X250.12Y-84.42
X253.275Y-167.895
X254.833Y-184.402
X254.888Y-108.179
X257.931Y-129.796
X259.625Y-165.355
X262.716Y-148.886
X262.77Y-86.96
X264.281Y-127.256
X267.537Y-186.951
X267.597Y-110.709
X269.066Y-146.346
X269.12Y-84.42
X272.352Y-167.87
X273.887Y-184.411
X273.947Y-108.169
X276.96Y-129.796
X278.702Y-165.33
X281.797Y-148.83
X281.846Y-86.963
X283.31Y-127.256
X286.61Y-186.96
X286.677Y-110.709
X288.147Y-146.29
X288.196Y-84.423
X292.96Y-184.42
X293.027Y-108.169
X296.021Y-129.796
X298.559Y-167.876
X300.846Y-86.963
X302.371Y-127.256
X304.909Y-165.336
X307.196Y-84.423
X309.46Y-190.96
X312.76Y-148.836
X315.278Y-110.712
X315.81Y-188.42
X319.11Y-146.296
X319.848Y-129.764
X321.628Y-108.172
X324.53Y-86.96
X326.198Y-127.224
X328.46Y-190.96
X328.46Y-171.96
X330.88Y-84.42
X334.81Y-188.42
X334.81Y-169.42
X347.46Y-190.96
X351.44Y-168.185
X351.463Y-149.125
X351.464Y-111.0
X351.466Y-130.053
X353.81Y-188.42
X357.79Y-165.645
X357.813Y-146.585
X357.814Y-108.46
X357.816Y-127.513
T4
X61.717Y-163.44
X85.593Y-163.44
X133.226Y-196.441
X233.226Y-196.441
X304.632Y-158.361
X307.15Y-106.267
X328.508Y-158.361
X331.026Y-106.267
T5
X61.707Y-113.273
X61.717Y-178.68
X62.23Y-89.5
X64.154Y-189.497
X66.516Y-132.325
X68.887Y-151.372
X73.655Y-170.425
X80.813Y-113.3
X85.5Y-89.5
X85.593Y-178.68
X87.969Y-189.497
X90.338Y-132.313
X95.086Y-151.37
X99.858Y-113.3
X104.58Y-170.43
X104.58Y-89.5
X109.393Y-132.321
X111.776Y-189.485
X114.168Y-151.37
X118.9Y-113.31
X123.58Y-89.5
X123.613Y-170.428
X128.448Y-132.321
X133.201Y-151.362
X133.226Y-181.201
X137.956Y-113.251
X142.58Y-89.5
X142.682Y-170.428
X147.498Y-132.313
X152.248Y-151.344
X157.033Y-113.261
X161.771Y-170.428
X166.5Y-89.5
X166.527Y-132.313
X171.326Y-151.393
X176.062Y-113.261
X180.821Y-170.453
X183.226Y-189.456
X185.556Y-132.313
X185.593Y-89.517
X190.414Y-151.376
X195.173Y-113.24
X199.868Y-170.453
X204.585Y-132.313
X204.645Y-89.519
X209.42Y-151.362
X214.225Y-113.259
X218.964Y-170.439
X223.646Y-132.345
X223.725Y-89.519
X228.384Y-151.422
X233.226Y-181.201
X233.271Y-113.259
X238.013Y-170.439
X242.712Y-132.336
X247.464Y-151.422
X247.58Y-89.5
X252.293Y-189.482
X252.348Y-113.259
X257.085Y-170.435
X261.741Y-132.336
X266.526Y-151.426
X266.58Y-89.5
X271.347Y-189.491
X271.407Y-113.249
X276.162Y-170.41
X280.77Y-132.336
X285.607Y-151.37
X285.656Y-89.503
X290.42Y-189.5
X290.487Y-113.249
X299.831Y-132.336
X302.369Y-170.416
X304.632Y-143.121
X304.656Y-89.503
X307.15Y-121.507
X313.27Y-193.5
X316.57Y-151.376
X319.088Y-113.252
X323.658Y-132.304
X328.34Y-89.5
X328.508Y-143.121
X331.026Y-121.507
X332.27Y-193.5
X332.27Y-174.5
X351.27Y-193.5
X355.25Y-170.725
X355.273Y-151.665
X355.274Y-113.54
X355.276Y-132.593
T1
G00X354.9Y-83.8
M15
G01X353.6Y-83.8
M16
G05
G00X354.9Y-95.0
M15
G01X353.6Y-95.0
M16
G05
M30
