%TF.GenerationSoftware,KiCad,Pcbnew,9.0.7*%
%TF.CreationDate,2026-08-03T14:04:41-04:00*%
%TF.ProjectId,sentry-keyboard-v1,73656e74-7279-42d6-9b65-79626f617264,rev?*%
%TF.SameCoordinates,Original*%
%TF.FileFunction,Paste,Bot*%
%TF.FilePolarity,Positive*%
%FSLAX46Y46*%
G04 Gerber Fmt 4.6, Leading zero omitted, Abs format (unit mm)*
G04 Created by KiCad (PCBNEW 9.0.7) date 2026-08-03 14:04:41*
%MOMM*%
%LPD*%
G01*
G04 APERTURE LIST*
G04 Aperture macros list*
%AMRoundRect*
0 Rectangle with rounded corners*
0 $1 Rounding radius*
0 $2 $3 $4 $5 $6 $7 $8 $9 X,Y pos of 4 corners*
0 Add a 4 corners polygon primitive as box body*
4,1,4,$2,$3,$4,$5,$6,$7,$8,$9,$2,$3,0*
0 Add four circle primitives for the rounded corners*
1,1,$1+$1,$2,$3*
1,1,$1+$1,$4,$5*
1,1,$1+$1,$6,$7*
1,1,$1+$1,$8,$9*
0 Add four rect primitives between the rounded corners*
20,1,$1+$1,$2,$3,$4,$5,0*
20,1,$1+$1,$4,$5,$6,$7,0*
20,1,$1+$1,$6,$7,$8,$9,0*
20,1,$1+$1,$8,$9,$2,$3,0*%
G04 Aperture macros list end*
%ADD10RoundRect,0.225000X0.375000X-0.225000X0.375000X0.225000X-0.375000X0.225000X-0.375000X-0.225000X0*%
%ADD11R,1.450000X0.820000*%
%ADD12RoundRect,0.205000X0.520000X0.205000X-0.520000X0.205000X-0.520000X-0.205000X0.520000X-0.205000X0*%
%ADD13RoundRect,0.250000X-0.475000X0.250000X-0.475000X-0.250000X0.475000X-0.250000X0.475000X0.250000X0*%
%ADD14RoundRect,0.250000X0.475000X-0.250000X0.475000X0.250000X-0.475000X0.250000X-0.475000X-0.250000X0*%
%ADD15RoundRect,0.200000X1.075000X1.050000X-1.075000X1.050000X-1.075000X-1.050000X1.075000X-1.050000X0*%
%ADD16RoundRect,0.225000X-0.225000X-0.375000X0.225000X-0.375000X0.225000X0.375000X-0.225000X0.375000X0*%
%ADD17RoundRect,0.250000X0.450000X-0.262500X0.450000X0.262500X-0.450000X0.262500X-0.450000X-0.262500X0*%
%ADD18RoundRect,0.250000X-0.250000X-0.475000X0.250000X-0.475000X0.250000X0.475000X-0.250000X0.475000X0*%
%ADD19R,1.700000X1.000000*%
%ADD20RoundRect,0.250000X0.250000X0.475000X-0.250000X0.475000X-0.250000X-0.475000X0.250000X-0.475000X0*%
%ADD21RoundRect,0.137500X0.600000X0.137500X-0.600000X0.137500X-0.600000X-0.137500X0.600000X-0.137500X0*%
%ADD22RoundRect,0.137500X0.137500X0.600000X-0.137500X0.600000X-0.137500X-0.600000X0.137500X-0.600000X0*%
%ADD23RoundRect,0.200000X-0.200000X-0.600000X0.200000X-0.600000X0.200000X0.600000X-0.200000X0.600000X0*%
%ADD24RoundRect,0.250001X-0.799999X-1.249999X0.799999X-1.249999X0.799999X1.249999X-0.799999X1.249999X0*%
%ADD25RoundRect,0.250001X0.624999X-0.462499X0.624999X0.462499X-0.624999X0.462499X-0.624999X-0.462499X0*%
%ADD26RoundRect,0.250000X-0.262500X-0.450000X0.262500X-0.450000X0.262500X0.450000X-0.262500X0.450000X0*%
%ADD27RoundRect,0.250000X0.450000X0.350000X-0.450000X0.350000X-0.450000X-0.350000X0.450000X-0.350000X0*%
%ADD28RoundRect,0.250000X-0.450000X0.262500X-0.450000X-0.262500X0.450000X-0.262500X0.450000X0.262500X0*%
G04 APERTURE END LIST*
D10*
%TO.C,D62*%
X151500000Y-174300000D03*
X151500000Y-171000000D03*
%TD*%
D11*
%TO.C,D160*%
X145350000Y-95000000D03*
X145350000Y-93500000D03*
D12*
X140000000Y-93500000D03*
D11*
X140000000Y-95000000D03*
%TD*%
%TO.C,D126*%
X245500000Y-138000000D03*
X245500000Y-136500000D03*
D12*
X240150000Y-136500000D03*
D11*
X240150000Y-138000000D03*
%TD*%
%TO.C,D150*%
X64465047Y-118747797D03*
X64465047Y-117247797D03*
D12*
X59115047Y-117247797D03*
D11*
X59115047Y-118747797D03*
%TD*%
D10*
%TO.C,D77*%
X261000000Y-193300000D03*
X261000000Y-190000000D03*
%TD*%
%TO.C,D46*%
X213500000Y-136300000D03*
X213500000Y-133000000D03*
%TD*%
D13*
%TO.C,C4*%
X199500000Y-195500000D03*
X199500000Y-197400000D03*
%TD*%
D11*
%TO.C,D96*%
X278909656Y-175877085D03*
X278909656Y-174377085D03*
D12*
X273559656Y-174377085D03*
D11*
X273559656Y-175877085D03*
%TD*%
D14*
%TO.C,C7*%
X219250000Y-183150000D03*
X219250000Y-181250000D03*
%TD*%
D10*
%TO.C,D66*%
X227500000Y-174300000D03*
X227500000Y-171000000D03*
%TD*%
%TO.C,D32*%
X275500000Y-93300000D03*
X275500000Y-90000000D03*
%TD*%
D11*
%TO.C,D119*%
X97850000Y-157000000D03*
X97850000Y-155500000D03*
D12*
X92500000Y-155500000D03*
D11*
X92500000Y-157000000D03*
%TD*%
%TO.C,D147*%
X121567468Y-118805426D03*
X121567468Y-117305426D03*
D12*
X116217468Y-117305426D03*
D11*
X116217468Y-118805426D03*
%TD*%
%TO.C,D87*%
X274000000Y-195000000D03*
X274000000Y-193500000D03*
D12*
X268650000Y-193500000D03*
D11*
X268650000Y-195000000D03*
%TD*%
D10*
%TO.C,D27*%
X132500000Y-174300000D03*
X132500000Y-171000000D03*
%TD*%
D15*
%TO.C,MXr1*%
X140413418Y-129773009D03*
X153340418Y-127233009D03*
%TD*%
D10*
%TO.C,D79*%
X299000000Y-193300000D03*
X299000000Y-190000000D03*
%TD*%
D11*
%TO.C,D109*%
X288500000Y-157000000D03*
X288500000Y-155500000D03*
D12*
X283150000Y-155500000D03*
D11*
X283150000Y-157000000D03*
%TD*%
%TO.C,D152*%
X307350000Y-95000000D03*
X307350000Y-93500000D03*
D12*
X302000000Y-93500000D03*
D11*
X302000000Y-95000000D03*
%TD*%
%TO.C,D105*%
X107350000Y-176000000D03*
X107350000Y-174500000D03*
D12*
X102000000Y-174500000D03*
D11*
X102000000Y-176000000D03*
%TD*%
D15*
%TO.C,MXx1*%
X116528380Y-167888287D03*
X129455380Y-165348287D03*
%TD*%
D10*
%TO.C,D43*%
X364000000Y-175300000D03*
X364000000Y-172000000D03*
%TD*%
D11*
%TO.C,D146*%
X140618615Y-118805426D03*
X140618615Y-117305426D03*
D12*
X135268615Y-117305426D03*
D11*
X135268615Y-118805426D03*
%TD*%
D10*
%TO.C,D65*%
X208500000Y-174300000D03*
X208500000Y-171000000D03*
%TD*%
D11*
%TO.C,D110*%
X269000000Y-157000000D03*
X269000000Y-155500000D03*
D12*
X263650000Y-155500000D03*
D11*
X263650000Y-157000000D03*
%TD*%
%TO.C,D133*%
X112078762Y-137911501D03*
X112078762Y-136411501D03*
D12*
X106728762Y-136411501D03*
D11*
X106728762Y-137911501D03*
%TD*%
%TO.C,D85*%
X315850000Y-199000000D03*
X315850000Y-197500000D03*
D12*
X310500000Y-197500000D03*
D11*
X310500000Y-199000000D03*
%TD*%
D15*
%TO.C,MXlshift1*%
X66570265Y-167884769D03*
X79497265Y-165344769D03*
%TD*%
D10*
%TO.C,D49*%
X270500000Y-136300000D03*
X270500000Y-133000000D03*
%TD*%
%TO.C,D42*%
X328000000Y-117300000D03*
X328000000Y-114000000D03*
%TD*%
D16*
%TO.C,D165*%
X352600000Y-99250000D03*
X355900000Y-99250000D03*
%TD*%
D15*
%TO.C,MXend1*%
X348165000Y-168185188D03*
X361092000Y-165645188D03*
%TD*%
D10*
%TO.C,D64*%
X189500000Y-174300000D03*
X189500000Y-171000000D03*
%TD*%
D15*
%TO.C,MXspace1*%
X176141291Y-186915790D03*
X189068291Y-184375790D03*
%TD*%
%TO.C,MXrshift1*%
X295283654Y-167875576D03*
X308210654Y-165335576D03*
%TD*%
%TO.C,MX;1*%
X259440713Y-148885959D03*
X272367713Y-146345959D03*
%TD*%
%TO.C,MX.1*%
X250000000Y-167895319D03*
X262927000Y-165355319D03*
%TD*%
D11*
%TO.C,D159*%
X169350000Y-95000000D03*
X169350000Y-93500000D03*
D12*
X164000000Y-93500000D03*
D11*
X164000000Y-95000000D03*
%TD*%
%TO.C,D88*%
X255000000Y-195000000D03*
X255000000Y-193500000D03*
D12*
X249650000Y-193500000D03*
D11*
X249650000Y-195000000D03*
%TD*%
D10*
%TO.C,D8*%
X90000000Y-117300000D03*
X90000000Y-114000000D03*
%TD*%
D15*
%TO.C,MXh1*%
X183329187Y-148835505D03*
X196256187Y-146295505D03*
%TD*%
D17*
%TO.C,R1*%
X173500000Y-197912500D03*
X173500000Y-196087500D03*
%TD*%
D10*
%TO.C,D61*%
X364000000Y-117800000D03*
X364000000Y-114500000D03*
%TD*%
%TO.C,D73*%
X73000000Y-193300000D03*
X73000000Y-190000000D03*
%TD*%
%TO.C,D81*%
X340850000Y-197300000D03*
X340850000Y-194000000D03*
%TD*%
D11*
%TO.C,D162*%
X107350000Y-95000000D03*
X107350000Y-93500000D03*
D12*
X102000000Y-93500000D03*
D11*
X102000000Y-95000000D03*
%TD*%
%TO.C,D90*%
X114500000Y-195000000D03*
X114500000Y-193500000D03*
D12*
X109150000Y-193500000D03*
D11*
X109150000Y-195000000D03*
%TD*%
D10*
%TO.C,D41*%
X299500000Y-117300000D03*
X299500000Y-114000000D03*
%TD*%
%TO.C,D69*%
X285000000Y-174300000D03*
X285000000Y-171000000D03*
%TD*%
D14*
%TO.C,C1*%
X231500000Y-193900000D03*
X231500000Y-192000000D03*
%TD*%
D11*
%TO.C,D144*%
X178725724Y-118848530D03*
X178725724Y-117348530D03*
D12*
X173375724Y-117348530D03*
D11*
X173375724Y-118848530D03*
%TD*%
D18*
%TO.C,C3*%
X223100000Y-186950000D03*
X225000000Y-186950000D03*
%TD*%
D11*
%TO.C,D134*%
X93007362Y-137867252D03*
X93007362Y-136367252D03*
D12*
X87657362Y-136367252D03*
D11*
X87657362Y-137867252D03*
%TD*%
%TO.C,D138*%
X293175000Y-118764599D03*
X293175000Y-117264599D03*
D12*
X287825000Y-117264599D03*
D11*
X287825000Y-118764599D03*
%TD*%
D15*
%TO.C,MXq1*%
X83252600Y-129772881D03*
X96179600Y-127232881D03*
%TD*%
%TO.C,MX1*%
X73727684Y-110759657D03*
X86654684Y-108219657D03*
%TD*%
D10*
%TO.C,D50*%
X289500000Y-136300000D03*
X289500000Y-133000000D03*
%TD*%
D15*
%TO.C,MX\u005C1*%
X316573000Y-129764430D03*
X329500000Y-127224430D03*
%TD*%
D11*
%TO.C,D84*%
X334850000Y-199000000D03*
X334850000Y-197500000D03*
D12*
X329500000Y-197500000D03*
D11*
X329500000Y-199000000D03*
%TD*%
D10*
%TO.C,D1*%
X71500000Y-92800000D03*
X71500000Y-89500000D03*
%TD*%
D11*
%TO.C,D129*%
X188000000Y-138000000D03*
X188000000Y-136500000D03*
D12*
X182650000Y-136500000D03*
D11*
X182650000Y-138000000D03*
%TD*%
D15*
%TO.C,MXbksp1*%
X312003253Y-110712170D03*
X324930253Y-108172170D03*
%TD*%
D10*
%TO.C,D52*%
X332500000Y-136300000D03*
X332500000Y-133000000D03*
%TD*%
%TO.C,D34*%
X313500000Y-93300000D03*
X313500000Y-90000000D03*
%TD*%
D11*
%TO.C,D132*%
X131500000Y-138000000D03*
X131500000Y-136500000D03*
D12*
X126150000Y-136500000D03*
D11*
X126150000Y-138000000D03*
%TD*%
%TO.C,D153*%
X288350000Y-95000000D03*
X288350000Y-93500000D03*
D12*
X283000000Y-93500000D03*
D11*
X283000000Y-95000000D03*
%TD*%
D10*
%TO.C,D37*%
X223000000Y-117300000D03*
X223000000Y-114000000D03*
%TD*%
D11*
%TO.C,D83*%
X354200000Y-199000000D03*
X354200000Y-197500000D03*
D12*
X348850000Y-197500000D03*
D11*
X348850000Y-199000000D03*
%TD*%
D10*
%TO.C,D14*%
X99000000Y-136300000D03*
X99000000Y-133000000D03*
%TD*%
%TO.C,D58*%
X275000000Y-155300000D03*
X275000000Y-152000000D03*
%TD*%
D15*
%TO.C,MXa1*%
X88001112Y-148830298D03*
X100928112Y-146290298D03*
%TD*%
D11*
%TO.C,D135*%
X69350000Y-138000000D03*
X69350000Y-136500000D03*
D12*
X64000000Y-136500000D03*
D11*
X64000000Y-138000000D03*
%TD*%
D10*
%TO.C,D76*%
X192000000Y-193300000D03*
X192000000Y-190000000D03*
%TD*%
D15*
%TO.C,MXb1*%
X173736136Y-167912636D03*
X186663136Y-165372636D03*
%TD*%
D10*
%TO.C,D21*%
X123000000Y-155150000D03*
X123000000Y-151850000D03*
%TD*%
D11*
%TO.C,D145*%
X159634887Y-118808840D03*
X159634887Y-117308840D03*
D12*
X154284887Y-117308840D03*
D11*
X154284887Y-118808840D03*
%TD*%
%TO.C,D89*%
X186000000Y-195000000D03*
X186000000Y-193500000D03*
D12*
X180650000Y-193500000D03*
D11*
X180650000Y-195000000D03*
%TD*%
%TO.C,D141*%
X235859201Y-118842378D03*
X235859201Y-117342378D03*
D12*
X230509201Y-117342378D03*
D11*
X230509201Y-118842378D03*
%TD*%
D15*
%TO.C,MXj1*%
X202335283Y-148822037D03*
X215262283Y-146282037D03*
%TD*%
D10*
%TO.C,D45*%
X194500000Y-136300000D03*
X194500000Y-133000000D03*
%TD*%
%TO.C,D51*%
X309000000Y-136300000D03*
X309000000Y-133000000D03*
%TD*%
D11*
%TO.C,D118*%
X117000000Y-157000000D03*
X117000000Y-155500000D03*
D12*
X111650000Y-155500000D03*
D11*
X111650000Y-157000000D03*
%TD*%
D19*
%TO.C,SW1*%
X170000000Y-187450000D03*
X163700000Y-187450000D03*
X170000000Y-191250000D03*
X163700000Y-191250000D03*
%TD*%
D11*
%TO.C,D108*%
X319500000Y-157000000D03*
X319500000Y-155500000D03*
D12*
X314150000Y-155500000D03*
D11*
X314150000Y-157000000D03*
%TD*%
%TO.C,D91*%
X90500000Y-195000000D03*
X90500000Y-193500000D03*
D12*
X85150000Y-193500000D03*
D11*
X85150000Y-195000000D03*
%TD*%
D10*
%TO.C,D31*%
X256500000Y-93300000D03*
X256500000Y-90000000D03*
%TD*%
%TO.C,D68*%
X266000000Y-174300000D03*
X266000000Y-171000000D03*
%TD*%
%TO.C,D2*%
X94500000Y-92800000D03*
X94500000Y-89500000D03*
%TD*%
D11*
%TO.C,D104*%
X126350000Y-176000000D03*
X126350000Y-174500000D03*
D12*
X121000000Y-174500000D03*
D11*
X121000000Y-176000000D03*
%TD*%
D15*
%TO.C,MX0*%
X245263465Y-110718530D03*
X258190465Y-108178530D03*
%TD*%
D10*
%TO.C,D25*%
X82500000Y-174300000D03*
X82500000Y-171000000D03*
%TD*%
D15*
%TO.C,F9*%
X240495000Y-86960000D03*
X253422000Y-84420000D03*
%TD*%
%TO.C,MXhome1*%
X348187858Y-149124782D03*
X361114858Y-146584782D03*
%TD*%
D10*
%TO.C,D10*%
X128000000Y-117300000D03*
X128000000Y-114000000D03*
%TD*%
%TO.C,D67*%
X247000000Y-174300000D03*
X247000000Y-171000000D03*
%TD*%
D11*
%TO.C,D113*%
X212000000Y-156989580D03*
X212000000Y-155489580D03*
D12*
X206650000Y-155489580D03*
D11*
X206650000Y-156989580D03*
%TD*%
%TO.C,D137*%
X322000000Y-119000000D03*
X322000000Y-117500000D03*
D12*
X316650000Y-117500000D03*
D11*
X316650000Y-119000000D03*
%TD*%
D15*
%TO.C,MXv1*%
X154685940Y-167888287D03*
X167612940Y-165348287D03*
%TD*%
D10*
%TO.C,D30*%
X232500000Y-93300000D03*
X232500000Y-90000000D03*
%TD*%
D15*
%TO.C,MXalt1*%
X104691161Y-186945498D03*
X117618161Y-184405498D03*
%TD*%
D11*
%TO.C,D155*%
X250350000Y-95000000D03*
X250350000Y-93500000D03*
D12*
X245000000Y-93500000D03*
D11*
X245000000Y-95000000D03*
%TD*%
D15*
%TO.C,MX4*%
X130871294Y-110710852D03*
X143798294Y-108170852D03*
%TD*%
D11*
%TO.C,D98*%
X240802965Y-176000000D03*
X240802965Y-174500000D03*
D12*
X235452965Y-174500000D03*
D11*
X235452965Y-176000000D03*
%TD*%
%TO.C,D128*%
X207289601Y-137960929D03*
X207289601Y-136460929D03*
D12*
X201939601Y-136460929D03*
D11*
X201939601Y-137960929D03*
%TD*%
D15*
%TO.C,MXn1*%
X192783207Y-167912636D03*
X205710207Y-165372636D03*
%TD*%
D11*
%TO.C,D157*%
X207350000Y-95000000D03*
X207350000Y-93500000D03*
D12*
X202000000Y-93500000D03*
D11*
X202000000Y-95000000D03*
%TD*%
D20*
%TO.C,C6*%
X199900000Y-185000000D03*
X198000000Y-185000000D03*
%TD*%
D15*
%TO.C,MX/1*%
X269076666Y-167869951D03*
X282003666Y-165329951D03*
%TD*%
%TO.C,MXright1*%
X344185000Y-190960000D03*
X357112000Y-188420000D03*
%TD*%
D10*
%TO.C,D35*%
X337500000Y-93300000D03*
X337500000Y-90000000D03*
%TD*%
%TO.C,D23*%
X161000000Y-155300000D03*
X161000000Y-152000000D03*
%TD*%
D15*
%TO.C,MXw1*%
X102307714Y-129780829D03*
X115234714Y-127240829D03*
%TD*%
D11*
%TO.C,D94*%
X334850000Y-180000000D03*
X334850000Y-178500000D03*
D12*
X329500000Y-178500000D03*
D11*
X329500000Y-180000000D03*
%TD*%
%TO.C,D151*%
X331000000Y-95000000D03*
X331000000Y-93500000D03*
D12*
X325650000Y-93500000D03*
D11*
X325650000Y-95000000D03*
%TD*%
D10*
%TO.C,D38*%
X242000000Y-117300000D03*
X242000000Y-114000000D03*
%TD*%
D15*
%TO.C,MXtilde1*%
X54621631Y-110732973D03*
X67548631Y-108192973D03*
%TD*%
D10*
%TO.C,D6*%
X175500000Y-93300000D03*
X175500000Y-90000000D03*
%TD*%
D11*
%TO.C,D140*%
X254976591Y-118817519D03*
X254976591Y-117317519D03*
D12*
X249626591Y-117317519D03*
D11*
X249626591Y-118817519D03*
%TD*%
%TO.C,D107*%
X358039199Y-157000000D03*
X358039199Y-155500000D03*
D12*
X352689199Y-155500000D03*
D11*
X352689199Y-157000000D03*
%TD*%
D10*
%TO.C,D47*%
X232500000Y-136300000D03*
X232500000Y-133000000D03*
%TD*%
D15*
%TO.C,MXleft1*%
X306185000Y-190960000D03*
X319112000Y-188420000D03*
%TD*%
D11*
%TO.C,D103*%
X145500000Y-176000000D03*
X145500000Y-174500000D03*
D12*
X140150000Y-174500000D03*
D11*
X140150000Y-176000000D03*
%TD*%
D10*
%TO.C,D9*%
X109000000Y-117300000D03*
X109000000Y-114000000D03*
%TD*%
D21*
%TO.C,U1*%
X215462500Y-186162500D03*
X215462500Y-186962500D03*
X215462500Y-187762500D03*
X215462500Y-188562500D03*
X215462500Y-189362500D03*
X215462500Y-190162500D03*
X215462500Y-190962500D03*
X215462500Y-191762500D03*
X215462500Y-192562500D03*
X215462500Y-193362500D03*
X215462500Y-194162500D03*
D22*
X213800000Y-195825000D03*
X213000000Y-195825000D03*
X212200000Y-195825000D03*
X211400000Y-195825000D03*
X210600000Y-195825000D03*
X209800000Y-195825000D03*
X209000000Y-195825000D03*
X208200000Y-195825000D03*
X207400000Y-195825000D03*
X206600000Y-195825000D03*
X205800000Y-195825000D03*
D21*
X204137500Y-194162500D03*
X204137500Y-193362500D03*
X204137500Y-192562500D03*
X204137500Y-191762500D03*
X204137500Y-190962500D03*
X204137500Y-190162500D03*
X204137500Y-189362500D03*
X204137500Y-188562500D03*
X204137500Y-187762500D03*
X204137500Y-186962500D03*
X204137500Y-186162500D03*
D22*
X205800000Y-184500000D03*
X206600000Y-184500000D03*
X207400000Y-184500000D03*
X208200000Y-184500000D03*
X209000000Y-184500000D03*
X209800000Y-184500000D03*
X210600000Y-184500000D03*
X211400000Y-184500000D03*
X212200000Y-184500000D03*
X213000000Y-184500000D03*
X213800000Y-184500000D03*
%TD*%
D15*
%TO.C,F5*%
X159415000Y-86960000D03*
X172342000Y-84420000D03*
%TD*%
%TO.C,MX5*%
X149948100Y-110720997D03*
X162875100Y-108180997D03*
%TD*%
D10*
%TO.C,D15*%
X118000000Y-136300000D03*
X118000000Y-133000000D03*
%TD*%
D11*
%TO.C,D149*%
X83479832Y-118777366D03*
X83479832Y-117277366D03*
D12*
X78129832Y-117277366D03*
D11*
X78129832Y-118777366D03*
%TD*%
%TO.C,D131*%
X150305654Y-137889377D03*
X150305654Y-136389377D03*
D12*
X144955654Y-136389377D03*
D11*
X144955654Y-137889377D03*
%TD*%
%TO.C,D114*%
X193000000Y-157000000D03*
X193000000Y-155500000D03*
D12*
X187650000Y-155500000D03*
D11*
X187650000Y-157000000D03*
%TD*%
D15*
%TO.C,MXralt1*%
X245207571Y-186942129D03*
X258134571Y-184402129D03*
%TD*%
%TO.C,MXup1*%
X325185084Y-171960000D03*
X338112084Y-169420000D03*
%TD*%
D10*
%TO.C,D57*%
X256500000Y-155300000D03*
X256500000Y-152000000D03*
%TD*%
D11*
%TO.C,D102*%
X164500000Y-176000000D03*
X164500000Y-174500000D03*
D12*
X159150000Y-174500000D03*
D11*
X159150000Y-176000000D03*
%TD*%
D10*
%TO.C,D53*%
X364000000Y-156500000D03*
X364000000Y-153200000D03*
%TD*%
D15*
%TO.C,MX3*%
X111814906Y-110769919D03*
X124741906Y-108229919D03*
%TD*%
D10*
%TO.C,D59*%
X294500000Y-155300000D03*
X294500000Y-152000000D03*
%TD*%
D11*
%TO.C,D148*%
X102417096Y-118772352D03*
X102417096Y-117272352D03*
D12*
X97067096Y-117272352D03*
D11*
X97067096Y-118772352D03*
%TD*%
D10*
%TO.C,D72*%
X364000000Y-136300000D03*
X364000000Y-133000000D03*
%TD*%
D11*
%TO.C,D122*%
X326500000Y-138000000D03*
X326500000Y-136500000D03*
D12*
X321150000Y-136500000D03*
D11*
X321150000Y-138000000D03*
%TD*%
D10*
%TO.C,D11*%
X147000000Y-117300000D03*
X147000000Y-114000000D03*
%TD*%
D11*
%TO.C,D116*%
X155000000Y-157000000D03*
X155000000Y-155500000D03*
D12*
X149650000Y-155500000D03*
D11*
X149650000Y-157000000D03*
%TD*%
D15*
%TO.C,MXu1*%
X197500034Y-129773009D03*
X210427034Y-127233009D03*
%TD*%
%TO.C,MXd1*%
X126116466Y-148822150D03*
X139043466Y-146282150D03*
%TD*%
D10*
%TO.C,D13*%
X75500000Y-136300000D03*
X75500000Y-133000000D03*
%TD*%
%TO.C,D12*%
X166000000Y-117300000D03*
X166000000Y-114000000D03*
%TD*%
D15*
%TO.C,MXk1*%
X221298850Y-148881592D03*
X234225850Y-146341592D03*
%TD*%
%TO.C,F7*%
X197560494Y-86978755D03*
X210487494Y-84438755D03*
%TD*%
D10*
%TO.C,D54*%
X199000000Y-155300000D03*
X199000000Y-152000000D03*
%TD*%
D15*
%TO.C,MXi1*%
X216560887Y-129804991D03*
X229487887Y-127264991D03*
%TD*%
%TO.C,MXpgdn1*%
X348191405Y-130053420D03*
X361118405Y-127513420D03*
%TD*%
D10*
%TO.C,D80*%
X321850000Y-197300000D03*
X321850000Y-194000000D03*
%TD*%
D11*
%TO.C,D100*%
X202675000Y-176000000D03*
X202675000Y-174500000D03*
D12*
X197325000Y-174500000D03*
D11*
X197325000Y-176000000D03*
%TD*%
%TO.C,D115*%
X174000000Y-157000000D03*
X174000000Y-155500000D03*
D12*
X168650000Y-155500000D03*
D11*
X168650000Y-157000000D03*
%TD*%
D15*
%TO.C,F2*%
X97495000Y-86960000D03*
X110422000Y-84420000D03*
%TD*%
%TO.C,MXpgup1*%
X348189199Y-111000000D03*
X361116199Y-108460000D03*
%TD*%
D11*
%TO.C,D95*%
X305500000Y-176000000D03*
X305500000Y-174500000D03*
D12*
X300150000Y-174500000D03*
D11*
X300150000Y-176000000D03*
%TD*%
D15*
%TO.C,F3*%
X116495000Y-86960000D03*
X129422000Y-84420000D03*
%TD*%
D17*
%TO.C,R7*%
X342000000Y-123575000D03*
X342000000Y-121750000D03*
%TD*%
D15*
%TO.C,MXg1*%
X164241386Y-148852941D03*
X177168386Y-146312941D03*
%TD*%
%TO.C,MX2*%
X92773210Y-110759657D03*
X105700210Y-108219657D03*
%TD*%
%TO.C,MXz1*%
X97494741Y-167890496D03*
X110421741Y-165350496D03*
%TD*%
%TO.C,MXt1*%
X159442290Y-129773009D03*
X172369290Y-127233009D03*
%TD*%
D23*
%TO.C,J2*%
X341200000Y-107400000D03*
X342450000Y-107400000D03*
X343700000Y-107400000D03*
X344950000Y-107400000D03*
D24*
X338650000Y-104500000D03*
X347500000Y-104500000D03*
%TD*%
D11*
%TO.C,D86*%
X293000000Y-195000000D03*
X293000000Y-193500000D03*
D12*
X287650000Y-193500000D03*
D11*
X287650000Y-195000000D03*
%TD*%
D15*
%TO.C,MX'1*%
X278522390Y-148829582D03*
X291449390Y-146289582D03*
%TD*%
D11*
%TO.C,D130*%
X169295931Y-137852502D03*
X169295931Y-136352502D03*
D12*
X163945931Y-136352502D03*
D11*
X163945931Y-137852502D03*
%TD*%
D15*
%TO.C,F4*%
X135495000Y-86960000D03*
X148422000Y-84420000D03*
%TD*%
%TO.C,F10*%
X259495000Y-86960000D03*
X272422000Y-84420000D03*
%TD*%
D10*
%TO.C,D60*%
X325500000Y-155300000D03*
X325500000Y-152000000D03*
%TD*%
D11*
%TO.C,D111*%
X250000000Y-156963048D03*
X250000000Y-155463048D03*
D12*
X244650000Y-155463048D03*
D11*
X244650000Y-156963048D03*
%TD*%
%TO.C,D156*%
X226500000Y-95000000D03*
X226500000Y-93500000D03*
D12*
X221150000Y-93500000D03*
D11*
X221150000Y-95000000D03*
%TD*%
D10*
%TO.C,D28*%
X194500000Y-93300000D03*
X194500000Y-90000000D03*
%TD*%
%TO.C,D74*%
X96500000Y-193300000D03*
X96500000Y-190000000D03*
%TD*%
D11*
%TO.C,D120*%
X71675000Y-157000000D03*
X71675000Y-155500000D03*
D12*
X66325000Y-155500000D03*
D11*
X66325000Y-157000000D03*
%TD*%
D10*
%TO.C,D16*%
X137000000Y-136800000D03*
X137000000Y-133500000D03*
%TD*%
D11*
%TO.C,D123*%
X302500000Y-138000000D03*
X302500000Y-136500000D03*
D12*
X297150000Y-136500000D03*
D11*
X297150000Y-138000000D03*
%TD*%
D15*
%TO.C,MXrctrl1*%
X283335000Y-186960000D03*
X296262000Y-184420000D03*
%TD*%
D11*
%TO.C,D93*%
X358141543Y-176269474D03*
X358141543Y-174769474D03*
D12*
X352791543Y-174769474D03*
D11*
X352791543Y-176269474D03*
%TD*%
D10*
%TO.C,D56*%
X237000000Y-155300000D03*
X237000000Y-152000000D03*
%TD*%
D25*
%TO.C,FU2*%
X339500000Y-119475000D03*
X339500000Y-116500000D03*
%TD*%
D10*
%TO.C,D17*%
X156500000Y-136300000D03*
X156500000Y-133000000D03*
%TD*%
%TO.C,D22*%
X142000000Y-155300000D03*
X142000000Y-152000000D03*
%TD*%
D11*
%TO.C,D158*%
X188350000Y-95000000D03*
X188350000Y-93500000D03*
D12*
X183000000Y-93500000D03*
D11*
X183000000Y-95000000D03*
%TD*%
D10*
%TO.C,D33*%
X294500000Y-93300000D03*
X294500000Y-90000000D03*
%TD*%
D15*
%TO.C,MXs1*%
X107083286Y-148830298D03*
X120010286Y-146290298D03*
%TD*%
D10*
%TO.C,D5*%
X151500000Y-92800000D03*
X151500000Y-89500000D03*
%TD*%
D11*
%TO.C,D117*%
X136000000Y-157000000D03*
X136000000Y-155500000D03*
D12*
X130650000Y-155500000D03*
D11*
X130650000Y-157000000D03*
%TD*%
%TO.C,D136*%
X358039199Y-119000000D03*
X358039199Y-117500000D03*
D12*
X352689199Y-117500000D03*
D11*
X352689199Y-119000000D03*
%TD*%
D15*
%TO.C,F12*%
X297571254Y-86962822D03*
X310498254Y-84422822D03*
%TD*%
%TO.C,MX-1*%
X264322346Y-110709415D03*
X277249346Y-108169415D03*
%TD*%
D10*
%TO.C,D24*%
X180000000Y-155300000D03*
X180000000Y-152000000D03*
%TD*%
%TO.C,D26*%
X113500000Y-174300000D03*
X113500000Y-171000000D03*
%TD*%
%TO.C,D48*%
X251500000Y-136300000D03*
X251500000Y-133000000D03*
%TD*%
D11*
%TO.C,D106*%
X76350000Y-176000000D03*
X76350000Y-174500000D03*
D12*
X71000000Y-174500000D03*
D11*
X71000000Y-176000000D03*
%TD*%
%TO.C,D112*%
X231000000Y-157000000D03*
X231000000Y-155500000D03*
D12*
X225650000Y-155500000D03*
D11*
X225650000Y-157000000D03*
%TD*%
%TO.C,D161*%
X126350000Y-95000000D03*
X126350000Y-93500000D03*
D12*
X121000000Y-93500000D03*
D11*
X121000000Y-95000000D03*
%TD*%
D15*
%TO.C,MX[1*%
X273684885Y-129796411D03*
X286611885Y-127256411D03*
%TD*%
D11*
%TO.C,D92*%
X66850000Y-195000000D03*
X66850000Y-193500000D03*
D12*
X61500000Y-193500000D03*
D11*
X61500000Y-195000000D03*
%TD*%
%TO.C,D101*%
X183622853Y-175911501D03*
X183622853Y-174411501D03*
D12*
X178272853Y-174411501D03*
D11*
X178272853Y-175911501D03*
%TD*%
D10*
%TO.C,D4*%
X132500000Y-92800000D03*
X132500000Y-89500000D03*
%TD*%
D15*
%TO.C,F6*%
X178507744Y-86976993D03*
X191434744Y-84436993D03*
%TD*%
D26*
%TO.C,R8*%
X193587500Y-185000000D03*
X195412500Y-185000000D03*
%TD*%
D15*
%TO.C,MXdown1*%
X325185000Y-190960000D03*
X338112000Y-188420000D03*
%TD*%
D10*
%TO.C,D44*%
X185000000Y-117300000D03*
X185000000Y-114000000D03*
%TD*%
D15*
%TO.C,MXl1*%
X240379263Y-148881592D03*
X253306263Y-146341592D03*
%TD*%
%TO.C,F8*%
X216640494Y-86978755D03*
X229567494Y-84438755D03*
%TD*%
D10*
%TO.C,D63*%
X170500000Y-174300000D03*
X170500000Y-171000000D03*
%TD*%
%TO.C,D3*%
X113500000Y-92800000D03*
X113500000Y-89500000D03*
%TD*%
D18*
%TO.C,C5*%
X219100000Y-197500000D03*
X221000000Y-197500000D03*
%TD*%
D15*
%TO.C,MXfn1*%
X264262039Y-186950885D03*
X277189039Y-184410885D03*
%TD*%
D13*
%TO.C,C2*%
X221250000Y-191850000D03*
X221250000Y-193750000D03*
%TD*%
D15*
%TO.C,MX\u002C1*%
X230928148Y-167898528D03*
X243855148Y-165358528D03*
%TD*%
%TO.C,F11*%
X278571254Y-86962822D03*
X291498254Y-84422822D03*
%TD*%
%TO.C,MXe1*%
X121363237Y-129780829D03*
X134290237Y-127240829D03*
%TD*%
D11*
%TO.C,D125*%
X264500000Y-138000000D03*
X264500000Y-136500000D03*
D12*
X259150000Y-136500000D03*
D11*
X259150000Y-138000000D03*
%TD*%
D15*
%TO.C,MXctrl1*%
X57068935Y-186957309D03*
X69995935Y-184417309D03*
%TD*%
D10*
%TO.C,D70*%
X311000000Y-174300000D03*
X311000000Y-171000000D03*
%TD*%
%TO.C,D40*%
X280500000Y-117300000D03*
X280500000Y-114000000D03*
%TD*%
D15*
%TO.C,F1*%
X78415000Y-86960000D03*
X91342000Y-84420000D03*
%TD*%
D10*
%TO.C,D36*%
X204000000Y-117300000D03*
X204000000Y-114000000D03*
%TD*%
D15*
%TO.C,MXf2*%
X145162733Y-148804306D03*
X158089733Y-146264306D03*
%TD*%
D10*
%TO.C,D78*%
X280068636Y-192550000D03*
X280068636Y-189250000D03*
%TD*%
%TO.C,D39*%
X261333628Y-117070855D03*
X261333628Y-113770855D03*
%TD*%
D11*
%TO.C,D164*%
X64850000Y-95000000D03*
X64850000Y-93500000D03*
D12*
X59500000Y-93500000D03*
D11*
X59500000Y-95000000D03*
%TD*%
%TO.C,D121*%
X357911163Y-138265267D03*
X357911163Y-136765267D03*
D12*
X352561163Y-136765267D03*
D11*
X352561163Y-138265267D03*
%TD*%
D15*
%TO.C,MXm1*%
X211879389Y-167898528D03*
X224806389Y-165358528D03*
%TD*%
%TO.C,MX]1*%
X292745738Y-129796411D03*
X305672738Y-127256411D03*
%TD*%
D10*
%TO.C,D20*%
X103850000Y-155300000D03*
X103850000Y-152000000D03*
%TD*%
D15*
%TO.C,MXenter1*%
X309484852Y-148835628D03*
X322411852Y-146295628D03*
%TD*%
%TO.C,MX+1*%
X283402346Y-110709415D03*
X296329346Y-108169415D03*
%TD*%
D10*
%TO.C,D82*%
X359850000Y-197300000D03*
X359850000Y-194000000D03*
%TD*%
D15*
%TO.C,MX9*%
X226185548Y-110718530D03*
X239112548Y-108178530D03*
%TD*%
D10*
%TO.C,D7*%
X70500000Y-117300000D03*
X70500000Y-114000000D03*
%TD*%
D11*
%TO.C,D139*%
X274019603Y-118658759D03*
X274019603Y-117158759D03*
D12*
X268669603Y-117158759D03*
D11*
X268669603Y-118658759D03*
%TD*%
%TO.C,D99*%
X221628754Y-176000000D03*
X221628754Y-174500000D03*
D12*
X216278754Y-174500000D03*
D11*
X216278754Y-176000000D03*
%TD*%
D15*
%TO.C,MXtab1*%
X59431034Y-129784921D03*
X72358034Y-127244921D03*
%TD*%
D11*
%TO.C,D124*%
X283500000Y-138000000D03*
X283500000Y-136500000D03*
D12*
X278150000Y-136500000D03*
D11*
X278150000Y-138000000D03*
%TD*%
D15*
%TO.C,MXy1*%
X178471162Y-129773009D03*
X191398162Y-127233009D03*
%TD*%
%TO.C,MX8*%
X207140022Y-110718530D03*
X220067022Y-108178530D03*
%TD*%
%TO.C,MXcaps1*%
X61802200Y-148832199D03*
X74729200Y-146292199D03*
%TD*%
D27*
%TO.C,Y1*%
X227500000Y-193700000D03*
X225300000Y-193700000D03*
X225300000Y-192000000D03*
X227500000Y-192000000D03*
%TD*%
D11*
%TO.C,D154*%
X269350000Y-95000000D03*
X269350000Y-93500000D03*
D12*
X264000000Y-93500000D03*
D11*
X264000000Y-95000000D03*
%TD*%
%TO.C,D143*%
X197697492Y-118848530D03*
X197697492Y-117348530D03*
D12*
X192347492Y-117348530D03*
D11*
X192347492Y-118848530D03*
%TD*%
D15*
%TO.C,MXp1*%
X254656013Y-129796411D03*
X267583013Y-127256411D03*
%TD*%
D10*
%TO.C,D71*%
X340250000Y-177550000D03*
X340250000Y-174250000D03*
%TD*%
D11*
%TO.C,D127*%
X226392549Y-137935321D03*
X226392549Y-136435321D03*
D12*
X221042549Y-136435321D03*
D11*
X221042549Y-137935321D03*
%TD*%
D10*
%TO.C,D18*%
X175500000Y-136300000D03*
X175500000Y-133000000D03*
%TD*%
%TO.C,D55*%
X218000000Y-155150000D03*
X218000000Y-151850000D03*
%TD*%
D11*
%TO.C,D142*%
X216708829Y-118787857D03*
X216708829Y-117287857D03*
D12*
X211358829Y-117287857D03*
D11*
X211358829Y-118787857D03*
%TD*%
D15*
%TO.C,MXo1*%
X235627142Y-129796411D03*
X248554142Y-127256411D03*
%TD*%
%TO.C,F13*%
X321255000Y-86960000D03*
X334182000Y-84420000D03*
%TD*%
%TO.C,MXc1*%
X135596590Y-167888287D03*
X148523590Y-165348287D03*
%TD*%
D10*
%TO.C,D19*%
X78000000Y-155300000D03*
X78000000Y-152000000D03*
%TD*%
D15*
%TO.C,MX6*%
X168977431Y-110720997D03*
X181904431Y-108180997D03*
%TD*%
D10*
%TO.C,D29*%
X213500000Y-93300000D03*
X213500000Y-90000000D03*
%TD*%
D15*
%TO.C,MX7*%
X188087697Y-110699602D03*
X201014697Y-108159602D03*
%TD*%
%TO.C,MXsuper1*%
X80883703Y-186957314D03*
X93810703Y-184417314D03*
%TD*%
D11*
%TO.C,D163*%
X88350000Y-95000000D03*
X88350000Y-93500000D03*
D12*
X83000000Y-93500000D03*
D11*
X83000000Y-95000000D03*
%TD*%
D28*
%TO.C,R6*%
X344500000Y-121750000D03*
X344500000Y-123575000D03*
%TD*%
D15*
%TO.C,ESC1*%
X55145000Y-86960000D03*
X68072000Y-84420000D03*
%TD*%
D10*
%TO.C,D75*%
X120500000Y-193300000D03*
X120500000Y-190000000D03*
%TD*%
D11*
%TO.C,D97*%
X259762513Y-175969271D03*
X259762513Y-174469271D03*
D12*
X254412513Y-174469271D03*
D11*
X254412513Y-175969271D03*
%TD*%
M02*
