M48
; DRILL file {KiCad 9.0.7} date 2026-09-19T14:13:13-0400
; FORMAT={-:-/ absolute / metric / decimal}
; #@! TF.CreationDate,2026-09-19T14:13:13-04:00
; #@! TF.GenerationSoftware,Kicad,Pcbnew,9.0.7
; #@! TF.FileFunction,Plated,1,2,PTH
FMAT,2
METRIC
; #@! TA.AperFunction,Plated,PTH,ViaDrill
T1C0.300
; #@! TA.AperFunction,Plated,PTH,ComponentDrill
T2C1.000
%
G90
G05
T1
X54.0Y-119.0
X54.5Y-186.0
X55.0Y-107.5
X55.145Y-90.75
X57.0Y-130.0
X57.0Y-183.5
X57.5Y-116.25
X58.5Y-193.5
X59.0Y-120.25
X59.0Y-149.0
X59.0Y-167.5
X60.75Y-139.5
X61.5Y-196.5
X62.0Y-136.5
X63.0Y-158.25
X63.25Y-139.5
X64.0Y-155.5
X66.0Y-119.5
X66.5Y-177.25
X67.5Y-96.25
X69.0Y-195.75
X69.25Y-174.5
X71.0Y-138.75
X73.25Y-157.25
X73.5Y-114.0
X73.5Y-179.75
X74.25Y-83.5
X74.75Y-117.277
X75.54Y-87.71
X76.25Y-93.5
X76.373Y-97.6
X77.75Y-120.25
X78.75Y-176.0
X79.0Y-193.5
X80.25Y-136.75
X80.25Y-196.5
X81.0Y-184.5
X82.5Y-132.5
X83.1Y-136.5
X83.25Y-193.5
X83.5Y-155.5
X84.25Y-139.25
X84.75Y-119.25
X86.0Y-117.25
X88.0Y-152.5
X88.6Y-155.5
X91.0Y-96.0
X91.25Y-158.25
X92.25Y-195.75
X92.5Y-113.5
X93.1Y-117.25
X94.75Y-138.25
X95.0Y-179.25
X95.25Y-120.25
X97.0Y-171.0
X97.5Y-90.25
X97.625Y-176.125
X98.25Y-93.5
X98.25Y-97.5
X99.5Y-174.0
X99.75Y-157.75
X102.0Y-193.5
X102.5Y-133.5
X103.125Y-136.625
X103.5Y-139.25
X103.75Y-119.5
X104.5Y-189.5
X104.5Y-196.5
X105.75Y-117.25
X105.75Y-155.75
X107.0Y-151.5
X107.5Y-193.5
X108.25Y-142.0
X108.5Y-155.5
X108.75Y-176.0
X109.5Y-95.75
X111.25Y-158.25
X111.4Y-115.75
X112.0Y-114.5
X112.75Y-117.25
X113.75Y-138.5
X115.0Y-95.0
X115.0Y-177.25
X115.75Y-120.25
X116.495Y-90.745
X116.5Y-171.0
X116.5Y-195.0
X117.095Y-97.65
X118.0Y-174.5
X118.5Y-157.75
X119.25Y-93.5
X120.25Y-155.5
X120.4Y-135.0
X121.0Y-133.5
X121.6Y-136.5
X121.75Y-139.25
X123.0Y-119.5
X124.398Y-154.0
X124.75Y-117.25
X126.0Y-152.0
X127.75Y-155.5
X128.25Y-176.0
X128.5Y-95.5
X129.75Y-194.25
X130.75Y-158.5
X131.0Y-114.0
X131.75Y-117.25
X132.5Y-94.75
X132.5Y-191.5
X133.0Y-138.25
X133.25Y-141.75
X134.25Y-105.5
X135.0Y-120.25
X135.0Y-121.501
X135.5Y-90.25
X135.5Y-171.0
X136.1Y-97.5
X136.25Y-93.5
X137.0Y-195.25
X137.25Y-157.5
X137.25Y-190.25
X138.0Y-174.5
X139.5Y-177.25
X139.7Y-190.3
X139.7Y-193.327
X140.5Y-133.5
X140.5Y-193.257
X141.1Y-136.25
X141.25Y-139.4
X141.75Y-185.75
X142.25Y-119.5
X142.25Y-161.5
X145.25Y-185.0
X145.5Y-120.5
X145.5Y-152.5
X146.5Y-155.5
X147.0Y-176.75
X147.5Y-141.75
X147.75Y-95.25
X148.0Y-174.5
X149.25Y-158.25
X150.0Y-114.0
X150.691Y-117.309
X151.625Y-139.125
X152.0Y-138.25
X152.75Y-120.25
X154.5Y-171.5
X155.25Y-174.5
X155.5Y-157.847
X155.829Y-177.361
X156.5Y-188.0
X157.0Y-158.5
X157.75Y-94.0
X157.75Y-141.75
X159.5Y-90.75
X159.5Y-97.5
X159.5Y-134.0
X160.103Y-136.353
X160.25Y-93.5
X160.75Y-139.25
X161.0Y-119.5
X161.5Y-141.0
X163.0Y-155.75
X164.5Y-153.0
X164.5Y-177.25
X165.151Y-158.302
X166.0Y-176.75
X166.5Y-190.5
X166.75Y-155.5
X167.25Y-174.5
X169.0Y-115.0
X170.25Y-117.25
X170.456Y-193.044
X171.0Y-138.25
X171.5Y-95.0
X173.5Y-120.25
X173.5Y-121.501
X173.5Y-172.0
X174.1Y-173.0
X175.25Y-182.75
X175.5Y-174.25
X175.75Y-157.5
X175.75Y-197.912
X176.5Y-195.0
X176.5Y-201.0
X177.75Y-93.5
X178.5Y-91.75
X178.5Y-134.0
X178.5Y-177.25
X179.0Y-193.4
X179.1Y-136.9
X179.25Y-93.5
X179.25Y-96.75
X179.75Y-139.25
X180.25Y-119.5
X181.0Y-197.0
X183.5Y-152.5
X184.674Y-158.326
X185.0Y-176.5
X185.75Y-155.75
X186.25Y-174.5
X187.5Y-195.0
X188.0Y-114.5
X188.5Y-200.5
X188.659Y-117.361
X189.0Y-120.25
X189.75Y-138.5
X190.5Y-95.25
X190.5Y-123.0
X191.5Y-188.0
X191.799Y-177.4
X192.45Y-200.0
X192.5Y-164.5
X192.5Y-195.0
X193.0Y-171.5
X193.1Y-194.4
X193.25Y-177.25
X193.25Y-200.0
X193.493Y-182.909
X194.5Y-157.5
X195.0Y-196.0
X195.75Y-174.5
X195.75Y-182.902
X195.926Y-186.362
X197.5Y-135.0
X197.56Y-91.25
X198.1Y-96.853
X198.125Y-93.625
X198.25Y-137.0
X198.375Y-139.375
X199.0Y-119.5
X199.5Y-192.0
X199.5Y-193.5
X201.0Y-155.5
X201.0Y-195.5
X202.5Y-152.5
X203.0Y-196.5
X203.0Y-197.5
X203.75Y-158.25
X204.0Y-176.5
X204.5Y-155.49
X206.5Y-194.0
X206.6Y-182.6
X207.0Y-160.0
X207.0Y-199.75
X207.5Y-114.5
X208.1Y-117.25
X208.75Y-120.25
X209.0Y-95.25
X209.0Y-138.25
X211.0Y-171.5
X211.182Y-200.068
X212.5Y-189.5
X212.5Y-194.0
X213.5Y-157.5
X213.625Y-177.375
X214.0Y-174.5
X214.0Y-186.5
X214.5Y-179.5
X215.25Y-94.75
X215.4Y-140.6
X216.0Y-141.6
X216.0Y-197.5
X216.5Y-124.25
X216.5Y-133.0
X216.64Y-91.61
X217.0Y-180.5
X217.0Y-197.0
X217.097Y-184.432
X217.1Y-93.549
X217.1Y-97.5
X217.25Y-136.435
X217.505Y-141.5
X217.75Y-139.25
X218.0Y-119.5
X218.0Y-192.5
X218.0Y-193.5
X218.0Y-194.5
X219.0Y-191.0
X219.0Y-192.0
X219.75Y-117.75
X221.5Y-152.0
X222.75Y-158.25
X223.25Y-143.25
X223.25Y-176.75
X224.25Y-155.5
X224.75Y-181.5
X226.0Y-114.0
X227.25Y-117.342
X227.75Y-177.4
X227.75Y-182.999
X227.75Y-184.6
X228.25Y-138.25
X229.0Y-95.5
X229.0Y-197.0
X229.5Y-181.25
X230.25Y-120.25
X230.75Y-177.25
X231.0Y-171.5
X231.0Y-189.0
X232.5Y-157.5
X233.75Y-174.5
X235.0Y-97.5
X235.5Y-133.5
X235.972Y-183.972
X236.1Y-136.5
X236.75Y-139.25
X236.75Y-158.25
X237.5Y-119.5
X238.25Y-141.803
X238.25Y-181.25
X238.746Y-93.9
X239.0Y-184.0
X239.0Y-194.0
X239.0Y-200.0
X239.011Y-178.6
X239.5Y-155.5
X240.0Y-178.6
X240.5Y-90.75
X240.5Y-152.5
X242.0Y-159.553
X242.642Y-160.1
X243.25Y-176.5
X245.5Y-114.5
X245.5Y-185.0
X246.432Y-117.318
X247.0Y-138.25
X247.625Y-194.875
X249.25Y-120.25
X249.25Y-177.25
X249.25Y-196.5
X250.0Y-171.0
X251.75Y-157.25
X252.0Y-95.5
X252.031Y-174.469
X252.5Y-200.0
X254.5Y-133.5
X255.1Y-136.5
X255.174Y-139.326
X255.5Y-97.5
X256.25Y-119.25
X256.5Y-195.75
X258.0Y-158.25
X259.5Y-91.25
X259.5Y-93.5
X259.5Y-152.5
X260.25Y-156.0
X261.75Y-176.0
X264.5Y-114.0
X264.5Y-121.553
X264.5Y-184.0
X264.5Y-196.25
X264.826Y-122.284
X265.159Y-117.159
X265.25Y-120.25
X265.75Y-160.356
X266.0Y-138.25
X267.25Y-193.5
X267.5Y-171.5
X268.5Y-177.25
X270.0Y-179.0
X270.75Y-157.5
X271.0Y-183.5
X271.25Y-95.5
X271.25Y-174.5
X271.517Y-142.204
X274.0Y-97.5
X274.1Y-133.75
X274.75Y-136.5
X274.75Y-139.25
X275.5Y-119.5
X275.75Y-194.5
X276.995Y-142.204
X277.0Y-158.25
X278.0Y-93.5
X278.571Y-91.179
X279.0Y-156.25
X279.25Y-152.5
X280.75Y-176.75
X282.501Y-182.501
X283.5Y-115.0
X284.25Y-117.25
X284.875Y-194.875
X285.0Y-138.25
X286.25Y-193.451
X286.5Y-199.25
X287.25Y-120.25
X287.25Y-170.5
X288.0Y-122.0
X288.0Y-123.0
X290.0Y-95.75
X290.25Y-157.0
X292.0Y-174.75
X293.1Y-133.75
X293.75Y-136.5
X294.5Y-195.5
X294.75Y-119.75
X295.25Y-139.25
X295.25Y-177.25
X295.5Y-97.5
X297.202Y-141.402
X297.25Y-158.5
X297.571Y-91.321
X297.894Y-141.001
X298.0Y-174.5
X298.25Y-93.5
X298.25Y-160.65
X301.0Y-142.75
X302.0Y-197.75
X303.25Y-155.5
X303.75Y-120.75
X304.0Y-138.25
X306.0Y-200.5
X306.435Y-187.0
X307.0Y-117.5
X307.0Y-176.0
X308.75Y-158.5
X309.0Y-197.5
X309.25Y-95.75
X309.5Y-152.5
X310.0Y-142.75
X312.0Y-105.5
X312.0Y-177.5
X313.5Y-120.75
X315.0Y-117.5
X316.255Y-97.603
X316.5Y-127.0
X316.5Y-140.6
X317.25Y-136.5
X317.25Y-139.25
X317.25Y-199.0
X318.5Y-182.5
X319.929Y-93.929
X321.255Y-91.505
X321.5Y-157.0
X321.75Y-142.75
X323.5Y-119.0
X324.5Y-169.0
X325.25Y-200.351
X325.435Y-187.665
X326.0Y-121.5
X326.75Y-179.853
X328.0Y-197.5
X328.25Y-138.25
X328.25Y-178.5
X330.405Y-96.842
X330.75Y-153.25
X336.5Y-199.0
X336.75Y-179.5
X338.0Y-97.0
X338.75Y-116.0
X339.25Y-143.0
X339.5Y-124.0
X339.704Y-161.499
X341.5Y-158.25
X342.0Y-133.0
X342.5Y-125.5
X343.75Y-197.5
X344.25Y-125.5
X344.5Y-200.25
X344.6Y-187.5
X344.95Y-112.25
X344.989Y-181.989
X344.999Y-161.35
X345.4Y-140.722
X345.588Y-182.52
X346.25Y-118.0
X346.387Y-182.482
X346.727Y-183.227
X347.037Y-180.401
X347.25Y-197.5
X347.269Y-174.769
X348.0Y-164.653
X348.1Y-136.75
X348.1Y-139.4
X348.1Y-160.142
X348.5Y-123.0
X350.75Y-117.5
X351.1Y-185.0
X351.25Y-155.5
X354.0Y-179.5
X354.125Y-89.775
X355.5Y-191.75
X355.5Y-199.0
X356.6Y-197.0
X357.0Y-140.25
X357.6Y-198.5
X357.75Y-120.5
X358.0Y-158.25
X358.0Y-177.5
X364.75Y-89.15
T2
X143.96Y-186.96
X143.96Y-189.5
X146.5Y-186.96
X146.5Y-189.5
X149.04Y-186.96
X149.04Y-189.5
X348.2Y-86.9
X348.2Y-91.9
X362.7Y-86.9
X362.7Y-89.4
X362.7Y-91.9
M30
